<svg version="1.1" id="Capa_1" xmlns="http://www.w3.org/2000/svg" xmlns:xlink="http://www.w3.org/1999/xlink" x="0px" y="0px"
	 viewBox="0 0 512 512" style="enable-background:new 0 0 512 512;" xml:space="preserve">
<circle style="fill:#2896FF;" cx="256" cy="256" r="256"/>
<path style="fill:#1E73BE;" d="M511.031,233.8L408.337,131.105l-4.289,2.969l-47.412-47.412C326.343,68.409,291.544,58.76,256,58.76
	C148.344,58.76,60.76,146.344,60.76,254c0,54.336,22.319,103.55,58.261,138.979l-0.012,0.012l118.328,118.328
	C243.501,511.763,249.723,512,256,512c141.385,0,256-114.615,256-256C512,248.519,511.66,241.118,511.031,233.8z"/>
<g>
	<path style="fill:#FFFFFF;" d="M256,449.24c-107.656,0-195.24-87.584-195.24-195.24S148.344,58.76,256,58.76
		c35.544,0,70.343,9.649,100.636,27.902l-14.252,23.648c-25.99-15.662-55.86-23.94-86.384-23.94
		c-92.432,0-167.63,75.199-167.63,167.63S163.568,421.63,256,421.63S423.63,346.432,423.63,254c0-29.875-7.794-58.722-22.654-84.219
		l-41.193,28.517l-15.715-22.701l64.269-44.492l7.871,11.278c22.918,32.84,35.032,71.436,35.032,111.617
		C451.24,361.656,363.656,449.24,256,449.24z"/>
	<path style="fill:#FFFFFF;" d="M256,324.945c-39.874,0-72.312-32.439-72.312-72.311s32.438-72.311,72.312-72.311
		s72.312,32.439,72.312,72.311S295.874,324.945,256,324.945z M256,215.822c-20.299,0-36.814,16.514-36.814,36.813
		s16.515,36.813,36.814,36.813s36.814-16.514,36.814-36.813S276.299,215.822,256,215.822z"/>
</g>
</svg>
